<?xml version="1.0" encoding="UTF-8"?><svg id="b" xmlns="http://www.w3.org/2000/svg" viewBox="0 0 923.35 214.18"><defs><style>.d{fill:#f7941d;}.e{fill:#939598;}</style></defs><g id="c"><g><g><rect class="d" x="131.12" y="85.04" width="41.15" height="41.15" rx="2.16" ry="2.16"/><rect class="d" x="140.17" y="50.05" width="27.33" height="27.33" rx="2.8" ry="2.8"/><rect class="d" x="185.84" y="91.2" width="30.76" height="30.76" rx="2.8" ry="2.8"/><rect class="d" x="88.39" y="129" width="41.15" height="41.15" rx="2.16" ry="2.16"/><path class="d" d="M117.34,46.78h-20.08c-5.82,0-10.54,4.72-10.54,10.54v10.12c0-5.8,.03,1.57,.06,6.72,.02,2.69-1.05,5.26-2.95,7.16l-2.83,2.83c-1.91,1.91-4.49,2.97-7.18,2.95-3.26-.03-7.26-.05-7.45-.05h-9.38c-5.82,0-10.54,4.72-10.54,10.54v20.08c0,5.82,4.72,10.54,10.54,10.54h20.08c5.82,0,10.54-4.72,10.54-10.54v-10.93c0-.18-.02-3.2-.04-5.89-.02-2.7,1.04-5.29,2.95-7.2l2.77-2.77c1.91-1.91,4.52-2.95,7.23-2.95h16.84c5.82,0,10.54-4.72,10.54-10.54v-20.08c0-5.82-4.72-10.54-10.54-10.54Z"/><circle class="d" cx="63.07" cy="63.72" r="12"/><circle class="d" cx="65.8" cy="150.09" r="12"/><circle class="d" cx="153.04" cy="150.09" r="12"/><rect class="d" y="92.65" width="28.08" height="28.08" rx="1.14" ry="1.14"/><rect class="d" x="94.93" width="28.08" height="28.08" rx="1.14" ry="1.14"/><rect class="d" x="94.93" y="186.1" width="28.08" height="28.08" rx="1.14" ry="1.14"/><rect class="d" x="96.16" y="93.88" width="28.08" height="28.08" rx="1.14" ry="1.14"/></g><g><g><path class="d" d="M278.58,53.81h35.83c2.73,0,4.24-1.6,4.24-4.51s-1.5-4.59-4.24-4.59h-36.1c-16.86,0-25.41,5.24-25.41,15.58v32.08c0,10.93,8.73,16.48,25.95,16.48h35.56c2.73,0,4.24-1.62,4.24-4.55s-1.5-4.55-4.24-4.55h-34.31c-10.82,0-16.31-2.55-16.31-7.57v-31.87c0-4.31,4.98-6.5,14.79-6.5Z"/><path class="d" d="M379.72,44.71h-17.42c-18.76,0-28.27,5.78-28.27,17.19v29.93c0,11.29,9.51,17.01,28.27,17.01h17.42c18.82,0,28.36-5.78,28.36-17.19v-29.75c0-11.41-9.54-17.19-28.36-17.19Zm-34.63,46.93v-29.27c0-5.76,5.01-8.56,15.3-8.56h22.3c9.64,0,14.32,2.8,14.32,8.56v29.27c0,5.46-4.86,8.11-14.86,8.11h-21.76c-10.3,0-15.3-2.65-15.3-8.11Z"/><path class="d" d="M497.4,44.26c-4.93,0-5.67,2.99-5.67,4.77v44.59l-53.16-47.06c-.75-.75-1.61-1.28-2.57-1.59-.92-.29-1.84-.44-2.76-.44-1.61,0-3.1,.51-4.44,1.51-1.41,1.06-2.12,2.73-2.12,4.96v53.52c0,1.78,.7,4.77,5.4,4.77s5.4-2.99,5.4-4.77V59.22l53.69,48.03c.74,.74,1.57,1.28,2.46,1.59,.86,.3,1.7,.45,2.51,.45,1.7,0,3.21-.58,4.49-1.73,1.31-1.17,1.98-2.95,1.98-5.27V49.03c0-3.08-1.85-4.77-5.22-4.77Z"/><path class="d" d="M592.01,44.26c-4.93,0-5.67,2.99-5.67,4.77v44.59l-53.16-47.06c-.75-.75-1.61-1.28-2.57-1.59-.92-.29-1.84-.44-2.76-.44-1.61,0-3.1,.51-4.44,1.51-1.41,1.06-2.12,2.73-2.12,4.96v53.52c0,1.78,.7,4.77,5.4,4.77s5.4-2.99,5.4-4.77V59.22l53.69,48.03c.74,.74,1.57,1.28,2.46,1.59,.86,.3,1.7,.45,2.51,.45,1.7,0,3.21-.58,4.49-1.73,1.31-1.17,1.98-2.95,1.98-5.27V49.03c0-3.08-1.85-4.77-5.22-4.77Z"/><path class="d" d="M681.09,99.74h-39.76c-9.65,0-14.35-2.34-14.35-7.15v-10.92h54.11c1.52,0,4.06-.6,4.06-4.59s-2.54-4.68-4.06-4.68h-54.11v-11.4c0-4.78,6.21-7.2,18.46-7.2h7.33c2.62,0,4.06-1.57,4.06-4.42,0-4.08-2.54-4.68-4.06-4.68h-10.9c-8.52,0-15.01,1.35-19.3,4.01-4.41,2.74-6.65,6.88-6.65,12.29v31.99c0,10.52,8.43,15.85,25.06,15.85h40.12c2.73,0,4.24-1.62,4.24-4.55s-1.5-4.55-4.24-4.55Z"/><path class="d" d="M725.5,53.81h35.83c2.73,0,4.24-1.6,4.24-4.51s-1.5-4.59-4.24-4.59h-36.1c-16.86,0-25.41,5.24-25.41,15.58v32.08c0,10.93,8.73,16.48,25.95,16.48h35.56c2.73,0,4.24-1.62,4.24-4.55s-1.5-4.55-4.24-4.55h-34.31c-10.82,0-16.31-2.55-16.31-7.57v-31.87c0-4.31,4.98-6.5,14.79-6.5Z"/><path class="d" d="M842.23,49.12c0-2.85-1.47-4.42-4.15-4.42h-60.67c-2.79,0-4.33,1.57-4.33,4.42,0,3.02,1.54,4.68,4.33,4.68h24.8v50.71c0,1.78,.71,4.77,5.49,4.77s5.58-2.99,5.58-4.77V53.81h24.8c1.55,0,4.15-.61,4.15-4.68Z"/><path class="d" d="M923.2,102.97c-.11-.57-.39-1.12-.82-1.64l-35.97-53.55c-.79-1.26-1.79-2.2-2.96-2.8-1.16-.6-2.38-.9-3.65-.9s-2.49,.3-3.65,.9c-1.16,.6-2.18,1.53-3.04,2.78l-35.87,53.77c-.48,.89-.73,1.81-.73,2.72,0,1.45,.58,2.67,1.73,3.64,1.1,.93,2.4,1.4,3.85,1.4,.67,0,1.38-.19,2.16-.58,.77-.38,1.45-.97,2.02-1.76l10.11-15.08h46.99l10.07,14.97c.61,.75,1.33,1.32,2.12,1.7,.8,.38,1.57,.57,2.28,.57,1.43,0,2.7-.42,3.78-1.25,1.14-.88,1.71-2.1,1.71-3.61,0-.36-.05-.78-.15-1.28Zm-60.8-20.38l17.57-27.43,17.16,27.43h-34.73Z"/></g><g><path class="e" d="M298.7,160.84c0,5.99-4.84,8.99-14.53,8.99h-25.84c-1.45,0-2.17-.79-2.17-2.37s.72-2.26,2.17-2.26h26.58c5.3,0,7.95-1.53,7.95-4.59v-3.35c0-3.39-3.17-5.09-9.51-5.09h-11.73c-10.12,0-15.18-2.73-15.18-8.19v-3.9c0-6.12,4.45-9.19,13.36-9.19h6.46c1.45,0,2.17,.8,2.17,2.39,0,1.49-.72,2.23-2.17,2.23h-7.35c-4.42,0-6.63,1.64-6.63,4.93v2.94c0,2.77,2.82,4.16,8.45,4.16h11.9c10.71,0,16.07,3.03,16.07,9.1v4.19Z"/><path class="e" d="M347.7,161.14c0,5.79-4.21,8.69-12.64,8.69h-15.87c-8.91,0-13.36-2.78-13.36-8.35v-3.84c0-5.79,4.36-8.69,13.08-8.69h23.61c-.37-2.93-2.58-4.4-6.63-4.4h-6.57c-1.3,0-1.95-.76-1.95-2.28s.65-2.17,1.95-2.17h5.74c8.43,0,12.64,2.97,12.64,8.91v12.14Zm-5.12-7.68h-24.89c-4.23,0-6.35,1.34-6.35,4.01v4.06c0,2.52,2.26,3.79,6.79,3.79h17.87c4.38,0,6.57-1.91,6.57-5.74v-6.13Z"/><path class="e" d="M366.07,144.54v23.16c0,1.6-.88,2.39-2.64,2.39s-2.76-.8-2.76-2.39v-23.16h-2.67c-1.48,0-2.23-.76-2.23-2.28s.74-2.17,2.23-2.17h2.67v-7.07c0-1.6,.94-2.39,2.81-2.39,1.73,0,2.59,.8,2.59,2.39v7.07h10.86c1.48,0,2.23,.74,2.23,2.23s-.74,2.23-2.23,2.23h-10.86Z"/><path class="e" d="M422.65,155.12c0,1.67-.8,2.51-2.39,2.51h-31.91v3.68c0,2.67,2.76,4.01,8.3,4.01h5.96c1.52,0,2.28,.74,2.28,2.23s-.76,2.28-2.28,2.28h-4.57c-10.06,0-15.09-3.06-15.09-9.19v-11.41c0-6.09,4.97-9.13,14.92-9.13h12.25c8.35,0,12.53,2.64,12.53,7.91v7.13Zm-34.3-2.12h29.07v-4.43c0-2.69-2.08-4.04-6.24-4.04h-14.53c-5.53,0-8.3,1.42-8.3,4.26v4.2Z"/><path class="e" d="M438.68,167.71c0,1.6-.89,2.39-2.67,2.39s-2.73-.8-2.73-2.39v-34.69c0-1.6,.89-2.39,2.67-2.39s2.73,.8,2.73,2.39v34.69Z"/><path class="e" d="M455,167.71c0,1.6-.89,2.39-2.67,2.39s-2.73-.8-2.73-2.39v-34.69c0-1.6,.89-2.39,2.67-2.39s2.73,.8,2.73,2.39v34.69Z"/><path class="e" d="M471.48,135.8c0,1.89-1.26,2.84-3.79,2.84-2.38,0-3.56-.95-3.56-2.84s1.19-2.84,3.56-2.84c2.52,0,3.79,.95,3.79,2.84Zm-.95,31.91c0,1.6-.87,2.39-2.62,2.39s-2.62-.8-2.62-2.39v-23.61c0-1.52,.84-2.28,2.51-2.28,1.82,0,2.73,.76,2.73,2.28v23.61Z"/><path class="e" d="M487.79,144.54v23.16c0,1.6-.88,2.39-2.64,2.39s-2.76-.8-2.76-2.39v-23.16h-2.67c-1.48,0-2.23-.76-2.23-2.28s.74-2.17,2.23-2.17h2.67v-7.07c0-1.6,.94-2.39,2.81-2.39,1.73,0,2.59,.8,2.59,2.39v7.07h10.86c1.48,0,2.23,.74,2.23,2.23s-.74,2.23-2.23,2.23h-10.86Z"/><path class="e" d="M544.36,155.12c0,1.67-.8,2.51-2.39,2.51h-31.91v3.68c0,2.67,2.76,4.01,8.3,4.01h5.96c1.52,0,2.28,.74,2.28,2.23s-.76,2.28-2.28,2.28h-4.57c-10.06,0-15.09-3.06-15.09-9.19v-11.41c0-6.09,4.97-9.13,14.92-9.13h12.25c8.35,0,12.53,2.64,12.53,7.91v7.13Zm-34.3-2.12h29.07v-4.43c0-2.69-2.08-4.04-6.24-4.04h-14.53c-5.53,0-8.3,1.42-8.3,4.26v4.2Z"/><path class="e" d="M617.42,160.84c0,5.99-4.84,8.99-14.53,8.99h-25.84c-1.45,0-2.17-.79-2.17-2.37s.72-2.26,2.17-2.26h26.58c5.3,0,7.95-1.53,7.95-4.59v-3.35c0-3.39-3.17-5.09-9.51-5.09h-11.73c-10.12,0-15.18-2.73-15.18-8.19v-3.9c0-6.12,4.45-9.19,13.36-9.19h6.46c1.45,0,2.17,.8,2.17,2.39,0,1.49-.72,2.23-2.17,2.23h-7.35c-4.42,0-6.63,1.64-6.63,4.93v2.94c0,2.77,2.82,4.16,8.45,4.16h11.9c10.71,0,16.07,3.03,16.07,9.1v4.19Z"/><path class="e" d="M665.8,160.8c0,6.01-4.68,9.02-14.03,9.02h-10.91c-9.54,0-14.31-3.01-14.31-9.02v-11.47c0-6.16,4.83-9.24,14.48-9.24h10.75c9.35,0,14.03,3.06,14.03,9.19v11.53Zm-5.57-11.97c0-2.86-2.54-4.29-7.63-4.29h-12.36c-5.53,0-8.3,1.6-8.3,4.79v11.47c0,3.01,2.76,4.51,8.3,4.51h12.36c5.09,0,7.63-1.5,7.63-4.51v-11.97Z"/><path class="e" d="M682.12,167.71c0,1.6-.89,2.39-2.67,2.39s-2.73-.8-2.73-2.39v-34.69c0-1.6,.89-2.39,2.67-2.39s2.73,.8,2.73,2.39v34.69Z"/><path class="e" d="M733.12,161.19c0,5.75-5.05,8.63-15.15,8.63h-9.35c-10.17,0-15.26-2.88-15.26-8.63v-19.27c0-1.56,.9-2.34,2.7-2.34s2.7,.78,2.7,2.34v19.27c0,2.75,3.01,4.12,9.02,4.12h11.14c5.86,0,8.8-1.34,8.8-4.01v-19.38c0-1.52,.92-2.28,2.76-2.28s2.65,.76,2.65,2.28v19.27Z"/><path class="e" d="M751.38,144.54v23.16c0,1.6-.88,2.39-2.64,2.39s-2.76-.8-2.76-2.39v-23.16h-2.67c-1.48,0-2.23-.76-2.23-2.28s.74-2.17,2.23-2.17h2.67v-7.07c0-1.6,.94-2.39,2.81-2.39,1.73,0,2.59,.8,2.59,2.39v7.07h10.86c1.48,0,2.23,.74,2.23,2.23s-.74,2.23-2.23,2.23h-10.86Z"/><path class="e" d="M775.77,135.8c0,1.89-1.26,2.84-3.79,2.84-2.38,0-3.56-.95-3.56-2.84s1.19-2.84,3.56-2.84c2.52,0,3.79,.95,3.79,2.84Zm-.95,31.91c0,1.6-.87,2.39-2.62,2.39s-2.62-.8-2.62-2.39v-23.61c0-1.52,.84-2.28,2.51-2.28,1.82,0,2.73,.76,2.73,2.28v23.61Z"/><path class="e" d="M824.16,160.8c0,6.01-4.68,9.02-14.03,9.02h-10.91c-9.54,0-14.31-3.01-14.31-9.02v-11.47c0-6.16,4.83-9.24,14.48-9.24h10.75c9.35,0,14.03,3.06,14.03,9.19v11.53Zm-5.57-11.97c0-2.86-2.54-4.29-7.63-4.29h-12.36c-5.53,0-8.3,1.6-8.3,4.79v11.47c0,3.01,2.76,4.51,8.3,4.51h12.36c5.09,0,7.63-1.5,7.63-4.51v-11.97Z"/><path class="e" d="M874.33,167.71c0,1.6-.91,2.39-2.73,2.39s-2.78-.8-2.78-2.39v-19.54c0-2.41-2.43-3.62-7.29-3.62h-13.59c-4.97,0-7.46,1.21-7.46,3.62v19.54c0,1.6-.89,2.39-2.67,2.39s-2.73-.8-2.73-2.39v-19.54c0-5.38,4.79-8.07,14.37-8.07h10.47c9.61,0,14.42,2.69,14.42,8.07v19.54Z"/><path class="e" d="M920.1,161.92c0,5.27-3.81,7.91-11.41,7.91h-22.83c-1.6,0-2.39-.72-2.39-2.17,0-1.56,.8-2.34,2.39-2.34h23.78c3.27,0,4.9-1.13,4.9-3.4v-1.78c0-2.19-1.84-3.29-5.51-3.29h-12.58c-8.39,0-12.58-2.51-12.58-7.52v-2c0-4.82,4.01-7.24,12.03-7.24h6.35c1.56,0,2.34,.74,2.34,2.23s-.78,2.23-2.34,2.23h-7.63c-3.56,0-5.35,.93-5.35,2.78v1.89c0,2.15,2.09,3.23,6.28,3.23h12.84c7.82,0,11.73,2.56,11.73,7.68v1.78Z"/></g></g></g></g></svg>